<?xml version="1.0" standalone="no"?>
<!DOCTYPE svg PUBLIC "-//W3C//DTD SVG 20010904//EN"
 "http://www.w3.org/TR/2001/REC-SVG-20010904/DTD/svg10.dtd">
<svg version="1.0" xmlns="http://www.w3.org/2000/svg"
 width="206.000000pt" height="43.000000pt" viewBox="0 0 206.000000 43.000000"
 preserveAspectRatio="xMidYMid meet">
<metadata>
Created by potrace 1.13, written by Peter Selinger 2001-2015
</metadata>
<g transform="translate(0.000000,43.000000) scale(0.100000,-0.100000)"
fill="#000000" stroke="none">
<path d="M227 398 c-13 -13 -41 -47 -61 -75 l-38 -53 54 0 c44 0 56 4 67 22
l14 22 17 -22 c15 -18 29 -22 70 -22 l51 0 -18 31 c-30 53 -94 119 -113 119
-11 0 -30 -10 -43 -22z"/>
<path d="M703 398 c-12 -13 -33 -47 -47 -75 l-26 -53 44 0 c36 0 46 4 51 20 3
11 10 20 15 20 5 0 12 -9 15 -20 5 -16 15 -20 51 -20 l44 0 -26 53 c-31 62
-61 97 -84 97 -9 0 -26 -10 -37 -22z"/>
<path d="M1085 395 c-22 -8 -41 -15 -41 -15 -10 -1 -23 -64 -18 -83 l6 -27
176 0 c96 0 172 3 168 8 -4 4 -65 9 -134 12 -110 4 -127 7 -130 23 -3 15 7 17
111 17 l115 0 26 34 c14 19 26 37 26 40 0 13 -266 5 -305 -9z"/>
<path d="M320 241 c0 -6 5 -13 10 -16 25 -15 5 -25 -49 -25 -55 0 -60 -2 -85
-35 l-27 -35 165 0 c92 0 166 2 166 5 0 3 -18 30 -40 60 -40 54 -42 55 -90 55
-28 0 -50 -4 -50 -9z"/>
<path d="M535 203 c16 -55 45 -84 76 -76 19 5 46 40 78 101 l12 22 -90 0 -90
0 14 -47z"/>
<path d="M780 245 c0 -3 16 -30 35 -60 l35 -55 249 0 c245 0 250 0 276 23 18
15 27 33 28 57 l2 35 -165 1 c-156 0 -158 0 -45 -5 98 -5 120 -9 120 -21 0
-13 -29 -15 -187 -18 l-188 -2 10 25 10 25 -90 0 c-50 0 -90 -2 -90 -5z"/>
</g>
</svg>
